<?xml version="1.0" encoding="UTF-8"?>
<svg version="1.2" baseProfile="tiny-ps" viewBox="0 0 100 100" xmlns="http://www.w3.org/2000/svg">
  <title>Ties-Tech LLC</title>
  <rect width="100%" height="100%" fill="#ffffff"/>
  <g fill-rule="evenodd" transform="matrix(3.5714 0 0 3.5714 50 50)">
    <path d="m-2.91-13.6c2.8-0.54 5.7-0.03 8.3 1.3 2.1 1.1 4 2.8 5.3 4.9 0.44 0.72 0.77 1.5 1.1 2.3 1.3-3.2 1.3-6.8-0.09-10-1.4-3.1-3.9-5.6-7-6.9-3.3-1.4-7.1-1.6-10.6-0.75-0.1 0.02-0.19 0.05-0.29 0.08 0.1 0.2 0.2 0.4 0.29 0.6 2.3 4.9 0.7 10.9-3.9 13.8-0.34 0.21-0.7 0.4-1.1 0.55-0.1-0.02-0.19-0.05-0.29-0.08-0.21-2-0.02-4 0.53-5.9 0.81-2.9 2.5-5.4 4.8-7.2z" fill="#81aedb"/>
    <path d="m-13.5-3.5c-0.54-2.8-0.03-5.7 1.3-8.3 1.1-2.1 2.8-4 4.9-5.3 0.72-0.44 1.5-0.77 2.3-1.1-3.2-1.3-6.8-1.3-10 0.09-3.1 1.4-5.6 3.9-6.9 7-1.4 3.3-1.6 7.1-0.75 10.6 0.02 0.1 0.05 0.19 0.08 0.29 0.2-0.1 0.4-0.2 0.6-0.29 4.9-2.3 10.9-0.7 13.8 3.9 0.21 0.34 0.4 0.7 0.55 1.1-0.02-0.1-0.05-0.19-0.08-0.29-2-0.21-4-0.02-5.9 0.53-2.9 0.81-5.4 2.5-7.2 4.8z" fill="#3e73b6"/>
    <path d="m-2.91 13.6c-2.8 0.54-5.7 0.03-8.3-1.3-2.1-1.1-4-2.8-5.3-4.9-0.44-0.72-0.77-1.5-1.1-2.3-1.3 3.2-1.3 6.8 0.09 10 1.4 3.1 3.9 5.6 7 6.9 3.3 1.4 7.1 1.6 10.6 0.75 0.1-0.02 0.19-0.05 0.29-0.08-0.1-0.2-0.2-0.4-0.29-0.6-2.3-4.9-0.7-10.9 3.9-13.8 0.34-0.21 0.7-0.4 1.1-0.55 0.1 0.02 0.19 0.05 0.29 0.08 0.21 2 0.02 4-0.53 5.9-0.81 2.9-2.5 5.4-4.8 7.2z" fill="#81aedb"/>
    <path d="m13.5-3.5c0.54-2.8 0.03-5.7-1.3-8.3-1.1-2.1-2.8-4-4.9-5.3-0.72-0.44-1.5-0.77-2.3-1.1 3.2-1.3 6.8-1.3 10 0.09 3.1 1.4 5.6 3.9 6.9 7 1.4 3.3 1.6 7.1 0.75 10.6-0.02 0.1-0.05 0.19-0.08 0.29-0.2-0.1-0.4-0.2-0.6-0.29-4.9-2.3-10.9-0.7-13.8 3.9-0.21 0.34-0.4 0.7-0.55 1.1 0.02-0.1 0.05-0.19 0.08-0.29 2-0.21 4-0.02 5.9 0.53 2.9 0.81 5.4 2.5 7.2 4.8z" fill="#3e73b6"/>
  </g>
</svg>